<svg xmlns="http://www.w3.org/2000/svg" version="1.1" xmlns:xlink="http://www.w3.org/1999/xlink" xmlns:svgjs="http://svgjs.dev/svgjs" viewBox="0 0 1200 550"><g fill="hsla(325, 100%, 41%, 1.00)" transform="matrix(1,0,0,1,-10.4755859375,357.4111022949219)"><path d="M-10,10C242.08333333333331,41.25,697.9166666666666,200.625,1200,160C1702.083333333
3335,119.375,2097.9166666666665,-235,2400,-185C2702.0833333333335,-135,3254.1666666666665,173.95833333333331,2650,400C2045.8333333333335,626.0416666666667,156.25,795.8333333333334,-500,900" transform="matrix(1,0,0,1,0,35)" opacity="0.05"></path><path d="M-10,10C242.08333333333331,41.25,697.9166666666666,200.625,1200,160C1702.0833333333335,119.375,2097.9166666666665,-235,2400,-185C2702.0833333333335,-135,3254.1666666666665,173.95833333333331,2650,400C2045.8333333333335,626.0416666666667,156.25,795.8333333333334,-500,900" transform="matrix(1,0,0,1,0,70)" opacity="0.37"></path><path d="M-10,10C242.08333333333331,41.25,697.9166666666666,200.625,1200,160C1702.0833333333335,119.375,2097.9166666666665,-235,2400,-185C2702.0833333333335,-135,3254.1666666666665,173.95833333333331,2650,400C2045.8333333333335,626.0416666666667,156.25,795.8333333333334,-500,900" transform="matrix(1,0,0,1,0,105)" opacity="0.68"></path><path d="M-10,10C242.08333333333331,41.25,697.9166666666666,200.625,1200,160C1702.0833333333335,119.375,2097.9166666666665,-235,2400,-185C2702.0833333333335,-135,3254.1666666666665,173.95833333333331,2650,400C2045.8333333333335,626.0416666666667,156.25,795.8333333333334,-500,900" transform="matrix(1,0,0,1,0,140)" opacity="1.00"></path></g></svg>